<svg width="400" height="76" viewBox="0 0 400 76" fill="none" xmlns="http://www.w3.org/2000/svg">
<path d="M8.64 50V16.976H1.92V14.24H11.76V50H8.64ZM32.0865 50.576C29.3025 50.576 26.8545 49.808 24.7425 48.272C22.6625 46.704 21.0305 44.528 19.8465 41.744C18.6945 38.96 18.1185 35.744 18.1185 32.096C18.1185 28.416 18.6945 25.2 19.8465 22.448C21.0305 19.664 22.6625 17.504 24.7425 15.968C26.8225 14.432 29.2545 13.664 32.0385 13.664C34.7905 13.664 37.2065 14.432 39.2865 15.968C41.3665 17.504 42.9825 19.664 44.1345 22.448C45.3185 25.2 45.9105 28.416 45.9105 32.096C45.9105 35.776 45.3345 39.008 44.1825 41.792C43.0305 44.544 41.4145 46.704 39.3345 48.272C37.2545 49.808 34.8385 50.576 32.0865 50.576ZM32.0865 47.6C34.2945 47.6 36.1985 46.944 37.7985 45.632C39.3985 44.32 40.6305 42.512 41.4945 40.208C42.3905 37.872 42.8385 35.168 42.8385 32.096C42.8385 28.992 42.3905 26.288 41.4945 23.984C40.6305 21.648 39.3985 19.84 37.7985 18.56C36.1985 17.248 34.2785 16.592 32.0385 16.592C29.8305 16.592 27.9105 17.248 26.2785 18.56C24.6785 19.84 23.4305 21.648 22.5345 23.984C21.6705 26.32 21.2385 29.024 21.2385 32.096C21.2385 35.136 21.6705 37.824 22.5345 40.16C23.4305 42.496 24.6945 44.32 26.3265 45.632C27.9585 46.944 29.8785 47.6 32.0865 47.6ZM56.9839 50V14.24H68.9839C71.2559 14.24 73.2559 14.688 74.9839 15.584C76.7119 16.48 78.0559 17.744 79.0159 19.376C80.0079 21.008 80.5039 22.896 80.5039 25.04C80.5039 27.184 80.0079 29.072 79.0159 30.704C78.0559 32.304 76.7119 33.568 74.9839 34.496C73.2879 35.392 71.2879 35.84 68.9839 35.84H60.1039V50H56.9839ZM60.1039 32.96H69.0799C70.7119 32.96 72.1519 32.64 73.3999 32C74.6479 31.328 75.6239 30.4 76.3279 29.216C77.0319 28 77.3839 26.592 77.3839 24.992C77.3839 23.392 77.0319 22.016 76.3279 20.864C75.6239 19.68 74.6479 18.768 73.3999 18.128C72.1519 17.456 70.7119 17.12 69.0799 17.12H60.1039V32.96ZM90.0863 50.576C88.4863 50.576 87.0623 50.272 85.8143 49.664C84.5663 49.056 83.5743 48.208 82.8383 47.12C82.1023 46.032 81.7343 44.784 81.7343 43.376C81.7343 42.128 82.0063 40.96 82.5503 39.872C83.0943 38.784 83.9743 37.856 85.1903 37.088C86.4063 36.288 87.9903 35.728 89.9423 35.408L100.262 33.68V36.368L90.7103 37.952C88.5343 38.304 86.9983 38.96 86.1023 39.92C85.2063 40.88 84.7583 42 84.7583 43.28C84.7583 44.656 85.2703 45.776 86.2943 46.64C87.3503 47.504 88.6783 47.936 90.2783 47.936C92.1343 47.936 93.7503 47.52 95.1263 46.688C96.5023 45.824 97.5743 44.704 98.3423 43.328C99.1103 41.92 99.4943 40.384 99.4943 38.72V32.384C99.4943 30.688 98.8863 29.312 97.6703 28.256C96.4543 27.2 94.8703 26.672 92.9183 26.672C91.3183 26.672 89.8783 27.072 88.5983 27.872C87.3183 28.672 86.3423 29.712 85.6703 30.992L83.0783 29.6C83.5583 28.576 84.2943 27.632 85.2863 26.768C86.2783 25.904 87.4303 25.216 88.7423 24.704C90.0543 24.192 91.4463 23.936 92.9183 23.936C94.7743 23.936 96.4063 24.304 97.8143 25.04C99.2543 25.744 100.374 26.736 101.174 28.016C101.974 29.264 102.374 30.72 102.374 32.384V50H99.4943V44.672L99.8303 44.912C99.4143 45.936 98.7263 46.88 97.7663 47.744C96.8063 48.576 95.6703 49.264 94.3583 49.808C93.0783 50.32 91.6543 50.576 90.0863 50.576ZM107.906 50V24.512H110.786V29.264L110.258 28.832C110.802 27.392 111.73 26.256 113.042 25.424C114.386 24.592 115.97 24.176 117.794 24.176H119.426V27.056H117.458C115.378 27.056 113.746 27.728 112.562 29.072C111.378 30.384 110.786 32.16 110.786 34.4V50H107.906ZM121.771 50V24.512H124.651V50H121.771ZM121.771 19.52V14.24H124.651V19.52H121.771ZM138.745 50.576C136.377 50.576 134.297 49.984 132.505 48.8C130.713 47.616 129.401 46 128.569 43.952L131.065 42.8C131.865 44.368 132.937 45.616 134.281 46.544C135.625 47.44 137.113 47.888 138.745 47.888C140.409 47.888 141.801 47.488 142.921 46.688C144.073 45.856 144.649 44.768 144.649 43.424C144.649 42.592 144.425 41.888 143.977 41.312C143.561 40.736 143.017 40.272 142.345 39.92C141.673 39.536 140.953 39.248 140.185 39.056L136.249 37.952C134.041 37.344 132.409 36.448 131.353 35.264C130.329 34.08 129.817 32.688 129.817 31.088C129.817 29.648 130.185 28.4 130.921 27.344C131.657 26.256 132.649 25.424 133.897 24.848C135.145 24.24 136.521 23.936 138.025 23.936C140.137 23.936 142.057 24.48 143.785 25.568C145.513 26.656 146.729 28.128 147.433 29.984L144.841 31.184C144.169 29.744 143.225 28.624 142.009 27.824C140.793 26.992 139.449 26.576 137.977 26.576C136.441 26.576 135.193 26.992 134.233 27.824C133.273 28.624 132.793 29.648 132.793 30.896C132.793 31.696 132.985 32.368 133.369 32.912C133.753 33.424 134.249 33.856 134.857 34.208C135.497 34.528 136.153 34.784 136.825 34.976L141.097 36.224C143.177 36.8 144.777 37.712 145.897 38.96C147.049 40.208 147.625 41.68 147.625 43.376C147.625 44.752 147.241 45.984 146.473 47.072C145.705 48.16 144.649 49.024 143.305 49.664C141.961 50.272 140.441 50.576 138.745 50.576ZM152.128 50V13.664H155.008V29.648L154.288 29.456C154.864 27.76 155.888 26.416 157.36 25.424C158.864 24.432 160.608 23.936 162.592 23.936C164.352 23.936 165.952 24.336 167.392 25.136C168.832 25.936 169.984 27.056 170.848 28.496C171.712 29.904 172.144 31.52 172.144 33.344V50H169.264V34.16C169.264 32.624 168.944 31.312 168.304 30.224C167.696 29.104 166.848 28.256 165.76 27.68C164.704 27.072 163.504 26.768 162.16 26.768C160.72 26.768 159.456 27.104 158.368 27.776C157.312 28.448 156.48 29.376 155.872 30.56C155.296 31.744 155.008 33.104 155.008 34.64V50H152.128ZM188.86 50.576C186.46 50.576 184.3 50 182.38 48.848C180.46 47.664 178.94 46.064 177.82 44.048C176.7 42 176.14 39.712 176.14 37.184C176.14 34.656 176.684 32.4 177.772 30.416C178.86 28.4 180.332 26.816 182.188 25.664C184.044 24.512 186.124 23.936 188.428 23.936C190.188 23.936 191.772 24.256 193.18 24.896C194.62 25.536 195.852 26.432 196.876 27.584C197.932 28.704 198.732 30 199.276 31.472C199.852 32.912 200.14 34.432 200.14 36.032C200.14 36.352 200.124 36.688 200.092 37.04C200.06 37.392 200.012 37.76 199.948 38.144H177.82V35.504H198.316L197.02 36.512C197.212 34.656 196.94 32.992 196.204 31.52C195.468 30.016 194.412 28.832 193.036 27.968C191.692 27.072 190.156 26.624 188.428 26.624C186.7 26.624 185.116 27.088 183.676 28.016C182.236 28.912 181.1 30.16 180.268 31.76C179.436 33.328 179.052 35.152 179.116 37.232C179.052 39.312 179.452 41.152 180.316 42.752C181.18 44.352 182.364 45.616 183.868 46.544C185.372 47.44 187.036 47.888 188.86 47.888C190.716 47.888 192.332 47.456 193.708 46.592C195.084 45.696 196.204 44.512 197.068 43.04L199.516 44.336C198.94 45.52 198.124 46.592 197.068 47.552C196.012 48.48 194.78 49.216 193.372 49.76C191.996 50.304 190.492 50.576 188.86 50.576ZM213.201 50.576C210.833 50.576 208.753 49.984 206.961 48.8C205.169 47.616 203.857 46 203.025 43.952L205.521 42.8C206.321 44.368 207.393 45.616 208.737 46.544C210.081 47.44 211.569 47.888 213.201 47.888C214.865 47.888 216.257 47.488 217.377 46.688C218.529 45.856 219.105 44.768 219.105 43.424C219.105 42.592 218.881 41.888 218.433 41.312C218.017 40.736 217.473 40.272 216.801 39.92C216.129 39.536 215.409 39.248 214.641 39.056L210.705 37.952C208.497 37.344 206.865 36.448 205.809 35.264C204.785 34.08 204.273 32.688 204.273 31.088C204.273 29.648 204.641 28.4 205.377 27.344C206.113 26.256 207.105 25.424 208.353 24.848C209.601 24.24 210.977 23.936 212.481 23.936C214.593 23.936 216.513 24.48 218.241 25.568C219.969 26.656 221.185 28.128 221.889 29.984L219.297 31.184C218.625 29.744 217.681 28.624 216.465 27.824C215.249 26.992 213.905 26.576 212.433 26.576C210.897 26.576 209.649 26.992 208.689 27.824C207.729 28.624 207.249 29.648 207.249 30.896C207.249 31.696 207.441 32.368 207.825 32.912C208.209 33.424 208.705 33.856 209.313 34.208C209.953 34.528 210.609 34.784 211.281 34.976L215.553 36.224C217.633 36.8 219.233 37.712 220.353 38.96C221.505 40.208 222.081 41.68 222.081 43.376C222.081 44.752 221.697 45.984 220.929 47.072C220.161 48.16 219.105 49.024 217.761 49.664C216.417 50.272 214.897 50.576 213.201 50.576Z" fill="black"/>
<path d="M233.456 50V14.24H257.312V20H239.984V29.888H255.152V35.648H239.984V50H233.456ZM271.434 50.576C268.747 50.576 266.395 49.968 264.378 48.752C262.362 47.536 260.794 45.888 259.674 43.808C258.554 41.728 257.994 39.424 257.994 36.896C257.994 34.272 258.554 31.952 259.674 29.936C260.826 27.888 262.378 26.272 264.33 25.088C266.314 23.904 268.523 23.312 270.955 23.312C273.003 23.312 274.795 23.648 276.331 24.32C277.899 24.992 279.227 25.92 280.314 27.104C281.403 28.288 282.235 29.648 282.811 31.184C283.387 32.688 283.674 34.32 283.674 36.08C283.674 36.528 283.642 36.992 283.579 37.472C283.547 37.952 283.467 38.368 283.339 38.72H263.178V33.92H279.787L276.811 36.176C277.099 34.704 277.019 33.392 276.571 32.24C276.155 31.088 275.451 30.176 274.459 29.504C273.499 28.832 272.331 28.496 270.955 28.496C269.642 28.496 268.474 28.832 267.451 29.504C266.427 30.144 265.642 31.104 265.098 32.384C264.586 33.632 264.394 35.152 264.523 36.944C264.394 38.544 264.602 39.968 265.146 41.216C265.723 42.432 266.555 43.376 267.642 44.048C268.762 44.72 270.043 45.056 271.483 45.056C272.923 45.056 274.139 44.752 275.131 44.144C276.155 43.536 276.955 42.72 277.53 41.696L282.619 44.192C282.107 45.44 281.307 46.544 280.219 47.504C279.131 48.464 277.835 49.216 276.331 49.76C274.859 50.304 273.227 50.576 271.434 50.576ZM296.937 50.576C294.153 50.576 291.721 49.92 289.641 48.608C287.593 47.264 286.185 45.456 285.417 43.184L290.121 40.928C290.793 42.4 291.721 43.552 292.905 44.384C294.121 45.216 295.465 45.632 296.937 45.632C298.089 45.632 299.001 45.376 299.673 44.864C300.345 44.352 300.681 43.68 300.681 42.848C300.681 42.336 300.537 41.92 300.249 41.6C299.993 41.248 299.625 40.96 299.145 40.736C298.697 40.48 298.201 40.272 297.657 40.112L293.385 38.912C291.177 38.272 289.497 37.296 288.345 35.984C287.225 34.672 286.665 33.12 286.665 31.328C286.665 29.728 287.065 28.336 287.865 27.152C288.697 25.936 289.833 24.992 291.273 24.32C292.745 23.648 294.425 23.312 296.313 23.312C298.777 23.312 300.953 23.904 302.841 25.088C304.729 26.272 306.073 27.936 306.873 30.08L302.073 32.336C301.625 31.152 300.873 30.208 299.817 29.504C298.761 28.8 297.577 28.448 296.265 28.448C295.209 28.448 294.377 28.688 293.769 29.168C293.161 29.648 292.857 30.272 292.857 31.04C292.857 31.52 292.985 31.936 293.241 32.288C293.497 32.64 293.849 32.928 294.297 33.152C294.777 33.376 295.321 33.584 295.929 33.776L300.105 35.024C302.249 35.664 303.897 36.624 305.049 37.904C306.233 39.184 306.825 40.752 306.825 42.608C306.825 44.176 306.409 45.568 305.577 46.784C304.745 47.968 303.593 48.896 302.121 49.568C300.649 50.24 298.921 50.576 296.937 50.576ZM322.121 50.288C319.177 50.288 316.889 49.488 315.257 47.888C313.657 46.256 312.857 43.968 312.857 41.024V29.504H308.345V23.888H308.825C310.105 23.888 311.097 23.552 311.801 22.88C312.505 22.208 312.857 21.232 312.857 19.952V17.936H319.145V23.888H325.145V29.504H319.145V40.688C319.145 41.552 319.289 42.288 319.577 42.896C319.897 43.504 320.377 43.968 321.017 44.288C321.689 44.608 322.537 44.768 323.561 44.768C323.785 44.768 324.041 44.752 324.329 44.72C324.649 44.688 324.953 44.656 325.241 44.624V50C324.793 50.064 324.281 50.128 323.705 50.192C323.129 50.256 322.601 50.288 322.121 50.288ZM328.605 50V23.888H334.893V50H328.605ZM328.605 20.96V14.24H334.893V20.96H328.605ZM347.131 50L336.859 23.888H343.723L351.163 44.432H348.619L356.107 23.888H362.971L352.699 50H347.131ZM371.989 50.576C370.165 50.576 368.581 50.272 367.237 49.664C365.893 49.056 364.853 48.192 364.117 47.072C363.381 45.92 363.013 44.592 363.013 43.088C363.013 41.648 363.333 40.368 363.973 39.248C364.613 38.096 365.605 37.136 366.949 36.368C368.293 35.6 369.989 35.056 372.037 34.736L380.581 33.344V38.144L373.237 39.392C371.989 39.616 371.061 40.016 370.453 40.592C369.845 41.168 369.541 41.92 369.541 42.848C369.541 43.744 369.877 44.464 370.549 45.008C371.253 45.52 372.117 45.776 373.141 45.776C374.453 45.776 375.605 45.504 376.597 44.96C377.621 44.384 378.405 43.6 378.949 42.608C379.525 41.616 379.813 40.528 379.813 39.344V32.624C379.813 31.504 379.365 30.576 378.469 29.84C377.605 29.072 376.453 28.688 375.013 28.688C373.669 28.688 372.469 29.056 371.413 29.792C370.389 30.496 369.637 31.44 369.157 32.624L364.021 30.128C364.533 28.752 365.333 27.568 366.421 26.576C367.541 25.552 368.853 24.752 370.357 24.176C371.861 23.6 373.493 23.312 375.253 23.312C377.397 23.312 379.285 23.712 380.917 24.512C382.549 25.28 383.813 26.368 384.709 27.776C385.637 29.152 386.101 30.768 386.101 32.624V50H380.149V45.536L381.493 45.44C380.821 46.56 380.021 47.504 379.093 48.272C378.165 49.008 377.109 49.584 375.925 50C374.741 50.384 373.429 50.576 371.989 50.576ZM390.473 50V13.664H396.761V50H390.473Z" fill="#D8693B"/>
<path d="M7.92 75L4.154 64.57H5.624L8.816 73.74H8.522L11.714 64.57H13.184L9.432 75H7.92ZM18.9799 75V64.57H20.3519V75H18.9799ZM30.7353 75.168C30.0726 75.168 29.466 75.0467 28.9153 74.804C28.3646 74.552 27.898 74.2113 27.5153 73.782C27.1326 73.3527 26.8573 72.872 26.6893 72.34L27.8793 71.85C28.1313 72.522 28.5046 73.04 28.9993 73.404C29.5033 73.7587 30.0913 73.936 30.7633 73.936C31.174 73.936 31.5333 73.8707 31.8413 73.74C32.1493 73.6093 32.3873 73.4273 32.5553 73.194C32.7326 72.9513 32.8213 72.6713 32.8213 72.354C32.8213 71.9153 32.6953 71.57 32.4433 71.318C32.2006 71.0567 31.8413 70.8607 31.3653 70.73L29.4473 70.142C28.6913 69.9087 28.1126 69.54 27.7113 69.036C27.31 68.532 27.1093 67.9533 27.1093 67.3C27.1093 66.7307 27.2446 66.2313 27.5153 65.802C27.7953 65.3633 28.178 65.0227 28.6633 64.78C29.158 64.528 29.718 64.402 30.3433 64.402C30.9686 64.402 31.5333 64.514 32.0373 64.738C32.5506 64.962 32.9846 65.2653 33.3393 65.648C33.694 66.0213 33.9553 66.4507 34.1233 66.936L32.9473 67.426C32.7233 66.838 32.3873 66.3947 31.9393 66.096C31.4913 65.788 30.964 65.634 30.3573 65.634C29.984 65.634 29.6526 65.6993 29.3633 65.83C29.0833 65.9513 28.864 66.1333 28.7053 66.376C28.556 66.6093 28.4813 66.8893 28.4813 67.216C28.4813 67.5987 28.6026 67.9393 28.8453 68.238C29.088 68.5367 29.4566 68.7653 29.9513 68.924L31.7013 69.442C32.5226 69.694 33.1433 70.0533 33.5633 70.52C33.9833 70.9867 34.1933 71.5653 34.1933 72.256C34.1933 72.8253 34.044 73.3293 33.7453 73.768C33.456 74.2067 33.05 74.552 32.5273 74.804C32.014 75.0467 31.4166 75.168 30.7353 75.168ZM44.4621 75.168C43.7061 75.168 43.0341 75.0093 42.4461 74.692C41.8674 74.3747 41.4147 73.9407 41.0881 73.39C40.7707 72.83 40.6121 72.1953 40.6121 71.486V64.57H41.9981V71.458C41.9981 71.934 42.1007 72.3587 42.3061 72.732C42.5207 73.096 42.8101 73.3807 43.1741 73.586C43.5474 73.7913 43.9767 73.894 44.4621 73.894C44.9474 73.894 45.3721 73.7913 45.7361 73.586C46.1094 73.3807 46.3987 73.096 46.6041 72.732C46.8187 72.3587 46.9261 71.934 46.9261 71.458V64.57H48.3121V71.486C48.3121 72.1953 48.1487 72.83 47.8221 73.39C47.5047 73.9407 47.0567 74.3747 46.4781 74.692C45.8994 75.0093 45.2274 75.168 44.4621 75.168ZM53.7654 75L57.5034 64.57H59.1274L62.8654 75H61.3954L60.5414 72.55H56.0894L55.2354 75H53.7654ZM56.5234 71.29H60.1074L58.1194 65.564H58.5114L56.5234 71.29ZM68.6597 75V64.57H70.0317V73.74H74.6097V75H68.6597ZM90.2758 75.168C89.6878 75.168 89.1651 75.0607 88.7078 74.846C88.2504 74.622 87.8911 74.3093 87.6298 73.908C87.3778 73.4973 87.2518 73.026 87.2518 72.494C87.2518 72.0367 87.3358 71.6353 87.5038 71.29C87.6718 70.9353 87.8771 70.632 88.1198 70.38C88.3718 70.128 88.6238 69.918 88.8758 69.75C89.1371 69.5727 89.3518 69.4327 89.5198 69.33L90.3178 68.868C90.5884 68.7093 90.8498 68.5367 91.1018 68.35C91.3538 68.1633 91.5638 67.9487 91.7318 67.706C91.8998 67.454 91.9838 67.174 91.9838 66.866C91.9838 66.502 91.8624 66.1987 91.6198 65.956C91.3771 65.7133 91.0738 65.592 90.7098 65.592C90.3458 65.592 90.0424 65.7133 89.7998 65.956C89.5571 66.1987 89.4358 66.5067 89.4358 66.88C89.4358 67.132 89.4964 67.3793 89.6178 67.622C89.7391 67.8647 89.8884 68.098 90.0658 68.322C90.2431 68.5367 90.4204 68.7373 90.5978 68.924L96.2678 75H94.5458L89.5758 69.764C89.3518 69.5307 89.1278 69.274 88.9038 68.994C88.6798 68.714 88.4884 68.406 88.3298 68.07C88.1804 67.7247 88.1058 67.3467 88.1058 66.936C88.1058 66.432 88.2224 65.9933 88.4558 65.62C88.6984 65.2373 89.0158 64.9387 89.4078 64.724C89.7998 64.5093 90.2338 64.402 90.7098 64.402C91.1764 64.402 91.6011 64.5093 91.9838 64.724C92.3758 64.9293 92.6884 65.2187 92.9218 65.592C93.1551 65.9653 93.2718 66.3947 93.2718 66.88C93.2718 67.3747 93.1551 67.8087 92.9218 68.182C92.6884 68.546 92.4084 68.8587 92.0818 69.12C91.7551 69.372 91.4471 69.582 91.1578 69.75L90.3738 70.226C90.1404 70.3753 89.8931 70.5527 89.6318 70.758C89.3704 70.954 89.1464 71.192 88.9598 71.472C88.7731 71.7427 88.6798 72.074 88.6798 72.466C88.6798 72.9327 88.8291 73.2967 89.1278 73.558C89.4358 73.8193 89.8324 73.95 90.3178 73.95C90.6258 73.95 90.9011 73.8987 91.1438 73.796C91.3864 73.6933 91.6011 73.558 91.7878 73.39C91.9838 73.222 92.1564 73.04 92.3058 72.844C92.4551 72.6387 92.5951 72.438 92.7258 72.242L94.3358 69.848H95.8338L93.9438 72.732C93.8038 72.9653 93.6264 73.222 93.4118 73.502C93.1971 73.782 92.9451 74.048 92.6558 74.3C92.3664 74.552 92.0258 74.762 91.6338 74.93C91.2511 75.0887 90.7984 75.168 90.2758 75.168ZM109.466 75V64.57H113.148C113.839 64.57 114.446 64.7007 114.968 64.962C115.491 65.2233 115.897 65.5967 116.186 66.082C116.485 66.5673 116.634 67.1367 116.634 67.79C116.634 68.4433 116.485 69.0127 116.186 69.498C115.897 69.974 115.491 70.3473 114.968 70.618C114.455 70.8793 113.848 71.01 113.148 71.01H110.838V75H109.466ZM110.838 69.75H113.19C113.61 69.75 113.974 69.6707 114.282 69.512C114.59 69.3533 114.828 69.1247 114.996 68.826C115.164 68.5273 115.248 68.182 115.248 67.79C115.248 67.3887 115.164 67.0433 114.996 66.754C114.828 66.4553 114.59 66.2267 114.282 66.068C113.974 65.9093 113.61 65.83 113.19 65.83H110.838V69.75ZM122.97 75V64.57H129.76V65.83H124.342V69.134H129.48V70.394H124.342V73.74H129.76V75H122.97ZM135.94 75V64.57H139.622C140.313 64.57 140.919 64.7007 141.442 64.962C141.965 65.2233 142.371 65.5967 142.66 66.082C142.959 66.5673 143.108 67.1367 143.108 67.79C143.108 68.5273 142.921 69.1527 142.548 69.666C142.175 70.1793 141.671 70.548 141.036 70.772L143.458 75H141.862L139.314 70.478L140.224 71.01H137.312V75H135.94ZM137.312 69.75H139.664C140.075 69.75 140.434 69.6707 140.742 69.512C141.05 69.3533 141.288 69.1247 141.456 68.826C141.633 68.5273 141.722 68.182 141.722 67.79C141.722 67.3887 141.633 67.0433 141.456 66.754C141.288 66.4553 141.05 66.2267 140.742 66.068C140.434 65.9093 140.075 65.83 139.664 65.83H137.312V69.75ZM149.498 75V64.57H156.106V65.83H150.87V69.204H155.616V70.464H150.87V75H149.498ZM166.988 75.168C166.25 75.168 165.56 75.0373 164.916 74.776C164.272 74.5053 163.707 74.1273 163.222 73.642C162.746 73.1567 162.372 72.5873 162.102 71.934C161.831 71.2713 161.696 70.5527 161.696 69.778C161.696 68.994 161.831 68.2753 162.102 67.622C162.372 66.9687 162.746 66.3993 163.222 65.914C163.707 65.4287 164.267 65.0553 164.902 64.794C165.546 64.5327 166.241 64.402 166.988 64.402C167.734 64.402 168.425 64.5373 169.06 64.808C169.704 65.0693 170.264 65.4427 170.74 65.928C171.225 66.404 171.603 66.9687 171.874 67.622C172.154 68.2753 172.294 68.994 172.294 69.778C172.294 70.5527 172.154 71.2713 171.874 71.934C171.603 72.5873 171.225 73.1567 170.74 73.642C170.264 74.1273 169.704 74.5053 169.06 74.776C168.425 75.0373 167.734 75.168 166.988 75.168ZM166.988 73.894C167.566 73.894 168.094 73.7913 168.57 73.586C169.046 73.3713 169.456 73.0773 169.802 72.704C170.156 72.3213 170.427 71.8827 170.614 71.388C170.81 70.884 170.908 70.3473 170.908 69.778C170.908 69.2087 170.81 68.6767 170.614 68.182C170.427 67.6873 170.156 67.2533 169.802 66.88C169.456 66.4973 169.046 66.2033 168.57 65.998C168.094 65.7833 167.566 65.676 166.988 65.676C166.418 65.676 165.896 65.7833 165.42 65.998C164.944 66.2033 164.528 66.4973 164.174 66.88C163.828 67.2533 163.558 67.6873 163.362 68.182C163.166 68.6767 163.068 69.2087 163.068 69.778C163.068 70.3473 163.166 70.884 163.362 71.388C163.558 71.8827 163.828 72.3213 164.174 72.704C164.528 73.0773 164.944 73.3713 165.42 73.586C165.896 73.7913 166.418 73.894 166.988 73.894ZM178.775 75V64.57H182.457C183.147 64.57 183.754 64.7007 184.277 64.962C184.799 65.2233 185.205 65.5967 185.495 66.082C185.793 66.5673 185.943 67.1367 185.943 67.79C185.943 68.5273 185.756 69.1527 185.383 69.666C185.009 70.1793 184.505 70.548 183.871 70.772L186.293 75H184.697L182.149 70.478L183.059 71.01H180.147V75H178.775ZM180.147 69.75H182.499C182.909 69.75 183.269 69.6707 183.577 69.512C183.885 69.3533 184.123 69.1247 184.291 68.826C184.468 68.5273 184.557 68.182 184.557 67.79C184.557 67.3887 184.468 67.0433 184.291 66.754C184.123 66.4553 183.885 66.2267 183.577 66.068C183.269 65.9093 182.909 65.83 182.499 65.83H180.147V69.75ZM192.333 75V64.57H193.593L197.499 70.128H196.855L200.733 64.57H201.993V75H200.607V66.306L201.097 66.46L197.219 71.92H197.107L193.271 66.46L193.705 66.306V75H192.333ZM208.789 75V64.57H210.161V75H208.789ZM216.961 75V64.57H218.109L224.101 72.998L223.583 73.054V64.57H224.969V75H223.821L217.857 66.516L218.333 66.46V75H216.961ZM236.593 75.168C235.855 75.168 235.174 75.0373 234.549 74.776C233.923 74.5053 233.382 74.1273 232.925 73.642C232.467 73.1567 232.108 72.5873 231.847 71.934C231.595 71.2807 231.469 70.5667 231.469 69.792C231.469 69.008 231.595 68.2893 231.847 67.636C232.099 66.9827 232.453 66.4133 232.911 65.928C233.368 65.4427 233.909 65.0693 234.535 64.808C235.16 64.5373 235.841 64.402 236.579 64.402C237.297 64.402 237.941 64.528 238.511 64.78C239.089 65.032 239.575 65.3587 239.967 65.76C240.368 66.1613 240.653 66.5907 240.821 67.048L239.589 67.65C239.346 67.0433 238.968 66.5627 238.455 66.208C237.941 65.8533 237.316 65.676 236.579 65.676C235.851 65.676 235.202 65.8487 234.633 66.194C234.073 66.5393 233.634 67.02 233.317 67.636C232.999 68.252 232.841 68.9707 232.841 69.792C232.841 70.604 232.999 71.318 233.317 71.934C233.643 72.55 234.087 73.0307 234.647 73.376C235.216 73.7213 235.865 73.894 236.593 73.894C237.227 73.894 237.801 73.7587 238.315 73.488C238.828 73.2173 239.234 72.844 239.533 72.368C239.831 71.892 239.981 71.3413 239.981 70.716V70.072L240.611 70.66H236.579V69.47H241.367V70.394C241.367 71.122 241.241 71.78 240.989 72.368C240.737 72.956 240.391 73.46 239.953 73.88C239.514 74.2907 239.005 74.608 238.427 74.832C237.848 75.056 237.237 75.168 236.593 75.168ZM253.592 75L257.33 64.57H258.954L262.692 75H261.222L260.368 72.55H255.916L255.062 75H253.592ZM256.35 71.29H259.934L257.946 65.564H258.338L256.35 71.29ZM268.486 75V64.57H272.168C272.859 64.57 273.465 64.7007 273.988 64.962C274.511 65.2233 274.917 65.5967 275.206 66.082C275.505 66.5673 275.654 67.1367 275.654 67.79C275.654 68.5273 275.467 69.1527 275.094 69.666C274.721 70.1793 274.217 70.548 273.582 70.772L276.004 75H274.408L271.86 70.478L272.77 71.01H269.858V75H268.486ZM269.858 69.75H272.21C272.621 69.75 272.98 69.6707 273.288 69.512C273.596 69.3533 273.834 69.1247 274.002 68.826C274.179 68.5273 274.268 68.182 274.268 67.79C274.268 67.3887 274.179 67.0433 274.002 66.754C273.834 66.4553 273.596 66.2267 273.288 66.068C272.98 65.9093 272.621 65.83 272.21 65.83H269.858V69.75ZM283.591 75V65.83H280.763V64.57H287.763V65.83H284.977V75H283.591ZM297.149 75.168C296.487 75.168 295.88 75.0467 295.329 74.804C294.779 74.552 294.312 74.2113 293.929 73.782C293.547 73.3527 293.271 72.872 293.103 72.34L294.293 71.85C294.545 72.522 294.919 73.04 295.413 73.404C295.917 73.7587 296.505 73.936 297.177 73.936C297.588 73.936 297.947 73.8707 298.255 73.74C298.563 73.6093 298.801 73.4273 298.969 73.194C299.147 72.9513 299.235 72.6713 299.235 72.354C299.235 71.9153 299.109 71.57 298.857 71.318C298.615 71.0567 298.255 70.8607 297.779 70.73L295.861 70.142C295.105 69.9087 294.527 69.54 294.125 69.036C293.724 68.532 293.523 67.9533 293.523 67.3C293.523 66.7307 293.659 66.2313 293.929 65.802C294.209 65.3633 294.592 65.0227 295.077 64.78C295.572 64.528 296.132 64.402 296.757 64.402C297.383 64.402 297.947 64.514 298.451 64.738C298.965 64.962 299.399 65.2653 299.753 65.648C300.108 66.0213 300.369 66.4507 300.537 66.936L299.361 67.426C299.137 66.838 298.801 66.3947 298.353 66.096C297.905 65.788 297.378 65.634 296.771 65.634C296.398 65.634 296.067 65.6993 295.777 65.83C295.497 65.9513 295.278 66.1333 295.119 66.376C294.97 66.6093 294.895 66.8893 294.895 67.216C294.895 67.5987 295.017 67.9393 295.259 68.238C295.502 68.5367 295.871 68.7653 296.365 68.924L298.115 69.442C298.937 69.694 299.557 70.0533 299.977 70.52C300.397 70.9867 300.607 71.5653 300.607 72.256C300.607 72.8253 300.458 73.3293 300.159 73.768C299.87 74.2067 299.464 74.552 298.941 74.804C298.428 75.0467 297.831 75.168 297.149 75.168Z" fill="#757575"/>
</svg>
